<svg xmlns="http://www.w3.org/2000/svg" width="256" height="256" viewBox="0 0 100 100"><rect width="100" height="100" rx="20" fill="#5370cf"></rect><path d="M32.27 77.81L32.27 77.81Q28.31 77.81 28.31 74.57L28.31 74.57L28.31 23.72Q29.93 22.10 33.17 22.10L33.17 22.10Q35.33 22.10 36.86 22.95Q38.39 23.81 39.65 26.06L39.65 26.06L56.84 54.86Q57.92 56.75 59.09 58.86Q60.26 60.98 61.34 63.09Q62.42 65.21 63.36 67.06Q64.31 68.90 64.94 70.16L64.94 70.16L65.30 70.07Q64.58 62.78 64.44 55.40Q64.31 48.02 64.31 41L64.31 41L64.31 22.82Q64.85 22.64 65.75 22.41Q66.65 22.19 67.73 22.19L67.73 22.19Q71.69 22.19 71.69 25.43L71.69 25.43L71.69 76.37Q70.88 77.09 69.62 77.50Q68.36 77.90 66.83 77.90L66.83 77.90Q64.67 77.90 63.14 77.05Q61.61 76.19 60.35 73.94L60.35 73.94L43.25 45.14Q42.17 43.34 40.95 41.18Q39.74 39.02 38.61 36.95Q37.49 34.88 36.55 32.99Q35.60 31.10 34.97 29.84L34.97 29.84L34.61 29.93Q35.06 34.25 35.33 39.79Q35.60 45.32 35.60 50.27L35.60 50.27L35.60 77.18Q35.15 77.36 34.20 77.58Q33.26 77.81 32.27 77.81Z" fill="#fff"></path></svg>