<?xml version="1.0" encoding="UTF-8"?><svg xmlns="http://www.w3.org/2000/svg" xmlns:xlink="http://www.w3.org/1999/xlink" height="499.8" preserveAspectRatio="xMidYMid meet" version="1.1" viewBox="0.0 -0.0 525.0 499.8" width="525.0" zoomAndPan="magnify">
 <defs>
  <clipPath id="clip1">
   <path d="m83 76h442.02v423.84h-442.02z"/>
  </clipPath>
 </defs>
 <g id="surface1">
  <g id="change1_1"><path d="m203.2 406.4c-112.2 0-203.2-91-203.2-203.2s91-203.2 203.2-203.2c112.2-0.0039062 203.2 90.996 203.2 203.2 0 37.2-10.1 72.1-27.5 102.1-53.2-19-106.4-38-159.6-56.9 18.9 48.1 37.9 96.2 56.9 144.4-22.7 8.7-47.3 13.6-73 13.6" fill="#f2df05"/></g>
  <g clip-path="url(#clip1)" id="change2_1">
   <path d="m473.1 498.4c1.9-2 1.8-5.2-0.2-7.1l-68.1-64.6c-2-1.9-5.2-1.8-7.1 0.2l-49.2 51.9-96.5-244.6 245.6 87.6-49.2 49.6c-1 1-1.5 2.3-1.4 3.6 0 1.4 0.6 2.6 1.6 3.6l68 62.5c2 1.9 5.2 1.7 7.1-0.3s1.7-5.2-0.3-7.1l-64.2-59 51.1-51.5c1.2-1.2 1.7-3 1.3-4.6-0.4-1.7-1.6-3-3.2-3.6l-263.4-94c-1.8-0.7-3.9-0.2-5.3 1.2s-1.8 3.5-1.1 5.3l103.4 262.2c0.6 1.6 2 2.7 3.7 3.1 1.7 0.3 3.4-0.2 4.6-1.5l51.2-54 64.5 61.1c1 0.9 2.2 1.4 3.4 1.4 1.4 0.2 2.7-0.3 3.7-1.4zm-266.3-302c1.9-2 1.9-5.1-0.1-7.1l-69.5-67.8c-2-1.9-5.1-1.9-7.1 0.1-1.9 2-1.9 5.1 0.1 7.1l69.5 67.8c1 0.9 2.2 1.4 3.5 1.4s2.6-0.5 3.6-1.5zm-22.9 60.8c0-2.8-2.2-5-5-5h-90.4c-2.801 0-5 2.2-5 5s2.199 5 5 5h90.4c2.7 0 5-2.2 5-5zm78.4-83.6c-2.8 0-5-2.2-5-5v-86.905c0-2.797 2.2-5 5-5s5 2.203 5 5v86.905c0 2.7-2.3 5-5 5" fill="#0f0e0c"/>
  </g>
 </g>
</svg>